REM DIRINDEX 1\8,1\2\11,1\3\12,1\3\14,1\5\15,1\5\16,1\6\17,1\6\18,1\4\19,1\4\20,1\4\21,1\4\22,1\7\23,1\7\24,1\7\25,1\2\9\26,1\2\9\27,1\2\10\28,1\2\10\29,1\2\10\30,1\2\10\31,1\2\10\32,1\3\13\33,1\3\13\34,1\3\13\35
REM DIRNAME cjc123,folder01,folder02,folder03,folder04,folder05,folder06,folder07,folder08,folder09,folder10,folder11,folder12,folder13,folder14,folder15,folder16,folder17,folder18,folder19,folder20,folder21,folder22,folder23,folder24,folder25,folder26,folder27,folder28,folder29,folder30,folder31,folder32,folder33,folder34
TITLE ""
FILE "158 158_—á•¶UNIT6_SET6.mp3" MP3
  TRACK 01 AUDIO
    TITLE "22:cjc123_4245"
    INDEX 01 00:00:00
  TRACK 02 AUDIO
    TITLE "0:"
    INDEX 01 00:02:69
  TRACK 03 AUDIO
    TITLE "19:cjc123_4246"
    INDEX 01 00:03:39
  TRACK 04 AUDIO
    TITLE "0:"
    INDEX 01 00:10:14
  TRACK 05 AUDIO
    TITLE "20:cjc123_4247"
    INDEX 01 00:10:43
  TRACK 06 AUDIO
    TITLE "0:"
    INDEX 01 00:16:57
  TRACK 07 AUDIO
    TITLE "21:cjc123_4248"
    INDEX 01 00:17:16
  TRACK 08 AUDIO
    TITLE "0:"
    INDEX 01 00:23:67
  TRACK 09 AUDIO
    TITLE "19:cjc123_4249"
    INDEX 01 00:24:41
  TRACK 10 AUDIO
    TITLE "0:"
    INDEX 01 00:30:01
  TRACK 11 AUDIO
    TITLE "20:cjc123_4250"
    INDEX 01 00:30:44
  TRACK 12 AUDIO
    TITLE "0:"
    INDEX 01 00:36:05
  TRACK 13 AUDIO
    TITLE "21:cjc123_4251"
    INDEX 01 00:36:33
  TRACK 14 AUDIO
    TITLE "0:"
    INDEX 01 00:41:69
  TRACK 15 AUDIO
    TITLE "19:cjc123_4252"
    INDEX 01 00:42:41
  TRACK 16 AUDIO
    TITLE "0:"
    INDEX 01 00:48:12
  TRACK 17 AUDIO
    TITLE "20:cjc123_4253"
    INDEX 01 00:48:51
  TRACK 18 AUDIO
    TITLE "0:"
    INDEX 01 00:55:61
  TRACK 19 AUDIO
    TITLE "21:cjc123_4254"
    INDEX 01 00:56:14
  TRACK 20 AUDIO
    TITLE "0:"
    INDEX 01 01:01:60
  TRACK 21 AUDIO
    TITLE "19:cjc123_4255"
    INDEX 01 01:02:42
  TRACK 22 AUDIO
    TITLE "0:"
    INDEX 01 01:06:55
  TRACK 23 AUDIO
    TITLE "20:cjc123_4256"
    INDEX 01 01:07:12
  TRACK 24 AUDIO
    TITLE "0:"
    INDEX 01 01:11:29
  TRACK 25 AUDIO
    TITLE "21:cjc123_4257"
    INDEX 01 01:11:56
  TRACK 26 AUDIO
    TITLE "0:"
    INDEX 01 01:15:68
  TRACK 27 AUDIO
    TITLE "19:cjc123_4258"
    INDEX 01 01:16:44
  TRACK 28 AUDIO
    TITLE "0:"
    INDEX 01 01:25:00
  TRACK 29 AUDIO
    TITLE "20:cjc123_4259"
    INDEX 01 01:25:41
  TRACK 30 AUDIO
    TITLE "0:"
    INDEX 01 01:35:73
  TRACK 31 AUDIO
    TITLE "21:cjc123_4260"
    INDEX 01 01:36:25
  TRACK 32 AUDIO
    TITLE "0:"
    INDEX 01 01:44:56
  TRACK 33 AUDIO
    TITLE "19:cjc123_4261"
    INDEX 01 01:45:38
  TRACK 34 AUDIO
    TITLE "0:"
    INDEX 01 01:51:54
  TRACK 35 AUDIO
    TITLE "20:cjc123_4262"
    INDEX 01 01:52:22
  TRACK 36 AUDIO
    TITLE "0:"
    INDEX 01 02:00:24
  TRACK 37 AUDIO
    TITLE "21:cjc123_4263"
    INDEX 01 02:00:53
  TRACK 38 AUDIO
    TITLE "0:"
    INDEX 01 02:06:69
  TRACK 39 AUDIO
    TITLE "19:cjc123_4264"
    INDEX 01 02:07:41
  TRACK 40 AUDIO
    TITLE "0:"
    INDEX 01 02:15:25
  TRACK 41 AUDIO
    TITLE "20:cjc123_4265"
    INDEX 01 02:15:66
  TRACK 42 AUDIO
    TITLE "0:"
    INDEX 01 02:22:58
  TRACK 43 AUDIO
    TITLE "21:cjc123_4266"
    INDEX 01 02:23:11
  TRACK 44 AUDIO
    TITLE "0:"
    INDEX 01 02:30:68
  TRACK 45 AUDIO
    TITLE "19:cjc123_4267"
    INDEX 01 02:31:50
  TRACK 46 AUDIO
    TITLE "0:"
    INDEX 01 02:35:49
  TRACK 47 AUDIO
    TITLE "20:cjc123_4268"
    INDEX 01 02:36:17
  TRACK 48 AUDIO
    TITLE "0:"
    INDEX 01 02:40:41
  TRACK 49 AUDIO
    TITLE "21:cjc123_4269"
    INDEX 01 02:40:68
  TRACK 50 AUDIO
    TITLE "0:"
    INDEX 01 02:44:66
  TRACK 51 AUDIO
    TITLE "19:cjc123_4270"
    INDEX 01 02:45:48
  TRACK 52 AUDIO
    TITLE "0:"
    INDEX 01 02:53:16
  TRACK 53 AUDIO
    TITLE "20:cjc123_4271"
    INDEX 01 02:53:65
  TRACK 54 AUDIO
    TITLE "0:"
    INDEX 01 03:01:23
  TRACK 55 AUDIO
    TITLE "21:cjc123_4272"
    INDEX 01 03:01:53
  TRACK 56 AUDIO
    TITLE "0:"
    INDEX 01 03:09:21
  TRACK 57 AUDIO
    TITLE "19:cjc123_4273"
    INDEX 01 03:09:68
  TRACK 58 AUDIO
    TITLE "0:"
    INDEX 01 03:16:13
  TRACK 59 AUDIO
    TITLE "20:cjc123_4274"
    INDEX 01 03:16:68
  TRACK 60 AUDIO
    TITLE "0:"
    INDEX 01 03:24:03
  TRACK 61 AUDIO
    TITLE "21:cjc123_4275"
    INDEX 01 03:24:40
  TRACK 62 AUDIO
    TITLE "0:"
    INDEX 01 03:30:64
  TRACK 63 AUDIO
    TITLE "19:cjc123_4276"
    INDEX 01 03:31:52
  TRACK 64 AUDIO
    TITLE "0:"
    INDEX 01 03:35:14
  TRACK 65 AUDIO
    TITLE "20:cjc123_4277"
    INDEX 01 03:35:26
  TRACK 66 AUDIO
    TITLE "0:"
    INDEX 01 03:38:66
  TRACK 67 AUDIO
    TITLE "21:cjc123_4278"
    INDEX 01 03:39:28
  TRACK 68 AUDIO
    TITLE "0:"
    INDEX 01 03:42:65
  TRACK 69 AUDIO
    TITLE "19:cjc123_4279"
    INDEX 01 03:43:71
  TRACK 70 AUDIO
    TITLE "0:"
    INDEX 01 03:48:66
  TRACK 71 AUDIO
    TITLE "20:cjc123_4280"
    INDEX 01 03:49:10
  TRACK 72 AUDIO
    TITLE "0:"
    INDEX 01 03:53:42
  TRACK 73 AUDIO
    TITLE "21:cjc123_4281"
    INDEX 01 03:53:57
  TRACK 74 AUDIO
    TITLE "0:"
    INDEX 01 03:58:54
  TRACK 75 AUDIO
    TITLE "19:cjc123_4282"
    INDEX 01 03:59:28
  TRACK 76 AUDIO
    TITLE "0:"
    INDEX 01 04:03:73
  TRACK 77 AUDIO
    TITLE "20:cjc123_4283"
    INDEX 01 04:04:37
  TRACK 78 AUDIO
    TITLE "0:"
    INDEX 01 04:08:69
  TRACK 79 AUDIO
    TITLE "21:cjc123_4284"
    INDEX 01 04:09:23
  TRACK 80 AUDIO
    TITLE "0:"
    INDEX 01 04:13:68
  TRACK 81 AUDIO
    TITLE "19:cjc123_4285"
    INDEX 01 04:14:46
  TRACK 82 AUDIO
    TITLE "0:"
    INDEX 01 04:20:72
  TRACK 83 AUDIO
    TITLE "20:cjc123_4286"
    INDEX 01 04:21:30
  TRACK 84 AUDIO
    TITLE "0:"
    INDEX 01 04:28:48
  TRACK 85 AUDIO
    TITLE "21:cjc123_4287"
    INDEX 01 04:28:71
  TRACK 86 AUDIO
    TITLE "0:"
    INDEX 01 04:35:24
  TRACK 87 AUDIO
    TITLE "19:cjc123_4288"
    INDEX 01 04:36:08
  TRACK 88 AUDIO
    TITLE "0:"
    INDEX 01 04:40:08
  TRACK 89 AUDIO
    TITLE "20:cjc123_4289"
    INDEX 01 04:40:27
  TRACK 90 AUDIO
    TITLE "0:"
    INDEX 01 04:44:70
  TRACK 91 AUDIO
    TITLE "21:cjc123_4290"
    INDEX 01 04:45:25
  TRACK 92 AUDIO
    TITLE "0:"
    INDEX 01 04:49:26
